#!OML:ASF I:\Actors\actors\Patient Classification 2\Patient 1\Session 1\actor1.ASF
:FULLY-SPECIFIED
:DEGREES
103
root -0.880254 18.7232 5.95784 2.34296 0.347024 -2.90145
lowerback 5.56795 0.141 0.320473
upperback 1.0675 0.232824 1.15978
thorax -2.02648 0.116615 0.995222
lowerneck -8.12075 -0.898314 1.49628
upperneck 20.4241 -1.66503 0.867646
head 7.61094 -0.601936 -0.114884
rclavicle 1.47349e-014 1.20762e-014
rhumerus -41.8174 5.49361 -90.4477
rradius 38.877
rwrist 18.137
rhand -17.0279 -29.2435
rfingers 7.12502
rthumb 9.20846 -59.0225
lclavicle 1.47349e-014 1.20762e-014
lhumerus -39.0161 -7.0248 94.7262
lradius 40.0079
lwrist -1.133
lhand -7.56969 -23.8622
lfingers 7.12502
lthumb 18.3228 5.29482
rfemur 7.12712 -0.757027 17.7435
rtibia -2.54444e-014
rfoot -17.8909 -10.3177
rtoes -4.88893
lfemur -6.55359 -5.08628 -10.8337
ltibia 22.3273
lfoot -20.5764 8.76267
ltoes -57.0716
104
root -0.876914 18.7229 5.94493 2.19764 0.455619 -2.92473
lowerback 5.80745 0.21785 0.258551
upperback 1.29284 0.329394 1.07975
thorax -1.9298 0.164492 0.940311
lowerneck -7.86931 -0.942908 1.73758
upperneck 19.9913 -1.7801 1.01648
head 7.42335 -0.631329 -0.113797
rclavicle 3.66509e-015 3.47873e-015
rhumerus -41.7078 5.92948 -90.6688
rradius 39.0071
rwrist 17.856
rhand -17.6958 -29.5931
rfingers 7.12502
rthumb 8.56392 -59.3995
lclavicle 3.66509e-015 3.47873e-015
lhumerus -38.7301 -7.74886 94.8086
lradius 40.0997
lwrist -0.938789
lhand -7.59103 -23.6672
lfingers 7.12502
lthumb 18.3023 5.4918
rfemur 7.25324 -0.858423 17.7567
rtibia 3.18055e-015
rfoot -17.8269 -10.3717
rtoes -5.1409
lfemur -6.54462 -5.00672 -10.8137
ltibia 22.4398
lfoot -20.4468 8.62786
ltoes -57.1583
105
root -0.873609 18.7226 5.93073 2.09823 0.566661 -2.98194
lowerback 6.01329 0.293178 0.151495
upperback 1.52689 0.422467 1.08251
thorax -1.80605 0.210745 0.996038
lowerneck -7.72449 -1.01081 1.68418
upperneck 19.5611 -1.90365 1.2793
head 7.26008 -0.677019 -0.0276873
rclavicle 1.07468e-014 3.18055e-015
rhumerus -41.4245 6.4877 -90.7701
rradius 38.9959
rwrist 17.5669
rhand -18.2828 -29.91
rfingers 7.12502
rthumb 7.99744 -59.7387
lclavicle 1.07468e-014 3.18055e-015
lhumerus -38.3948 -8.38369 94.9671
lradius 40.2131
lwrist -0.688533
lhand -7.50364 -23.3578
lfingers 7.12502
lthumb 18.3864 5.7933
rfemur 7.32036 -0.963057 17.8057
rtibia 9.54166e-015
rfoot -17.7577 -10.3971
rtoes -5.25166
lfemur -6.60731 -4.80412 -10.7438
ltibia 22.575
lfoot -20.295 8.39437
ltoes -57.2767
106
root -0.868903 18.7217 5.91448 1.99389 0.717517 -3.08233
lowerback 6.23923 0.366234 0.0984678
upperback 1.77265 0.516412 1.1222
thorax -1.68155 0.257005 1.05914
lowerneck -7.70846 -1.07657 1.47414
upperneck 19.2749 -2.01854 1.61198
head 7.16973 -0.721626 0.106434
rclavicle -1.43249e-014 -8.34896e-015
rhumerus -41.0729 6.97845 -90.7597
rradius 38.9369
rwrist 17.3749
rhand -18.8269 -30.0508
rfingers 7.12502
rthumb 7.47219 -59.8988
lclavicle -1.43249e-014 -8.34896e-015
lhumerus -38.0447 -8.97369 95.1606
lradius 40.3335
lwrist -0.509795
lhand -7.50154 -23.3202
lfingers 7.12502
lthumb 18.3884 5.8307
rfemur 7.39121 -1.10587 17.8965
rtibia 0
rfoot -17.7279 -10.3999
rtoes -5.13798
lfemur -6.68814 -4.64057 -10.6239
ltibia 22.7403
lfoot -20.2103 8.10474
ltoes -57.2438
107
root -0.864134 18.7205 5.89874 1.89651 0.881217 -3.19195
lowerback 6.46522 0.460628 0.0915264
upperback 2.03149 0.640949 1.14375
thorax -1.54359 0.318283 1.07521
lowerneck -7.68202 -1.15048 1.44781
upperneck 18.9559 -2.14007 1.78922
head 7.06427 -0.770632 0.158948
rclavicle -5.96354e-015 1.49089e-015
rhumerus -40.7115 7.275 -90.7067
rradius 38.9215
rwrist 17.2365
rhand -19.2999 -30.1936
rfingers 7.12502
rthumb 7.01563 -60.0574
lclavicle -5.96354e-015 1.49089e-015
lhumerus -37.6412 -9.58922 95.3286
lradius 40.4317
lwrist -0.451132
lhand -7.57992 -23.528
lfingers 7.12502
lthumb 18.313 5.62992
rfemur 7.46279 -1.26178 17.9969
rtibia 2.06736e-014
rfoot -17.7408 -10.3821
rtoes -4.91096
lfemur -6.79352 -4.55928 -10.4957
ltibia 22.9338
lfoot -20.1565 7.86652
ltoes -57.2007
108
root -0.859478 18.72 5.88102 1.83492 1.07811 -3.30066
lowerback 6.70296 0.525043 0.0334287
upperback 2.27054 0.722769 1.17797
thorax -1.43239 0.358217 1.13596
lowerneck -7.58082 -1.18474 1.55958
upperneck 18.5551 -2.19604 1.82393
head 6.91638 -0.793042 0.148598
rclavicle -1.13804e-014 -4.07509e-015
rhumerus -40.5089 7.52419 -90.6811
rradius 39.111
rwrist 17.0868
rhand -19.5692 -30.4933
rfingers 7.12502
rthumb 6.75568 -60.3655
lclavicle -1.13804e-014 -4.07509e-015
lhumerus -37.2697 -10.1747 95.4764
lradius 40.5974
lwrist -0.249851
lhand -7.70388 -23.7267
lfingers 7.12502
lthumb 18.1937 5.44244
rfemur 7.49424 -1.45242 18.0967
rtibia 1.43125e-014
rfoot -17.7356 -10.362
rtoes -4.72264
lfemur -6.97414 -4.49034 -10.3666
ltibia 23.1402
lfoot -20.065 7.65292
ltoes -57.2964
109
root -0.854075 18.7197 5.86023 1.76181 1.31918 -3.39106
lowerback 7.00873 0.56113 -0.0397567
upperback 2.48915 0.766022 1.19411
thorax -1.3791 0.378913 1.18877
lowerneck -7.47038 -1.21183 1.68116
upperneck 18.2183 -2.252 1.90003
head 6.78854 -0.811007 0.149982
rclavicle 3.18055e-015 1.59028e-015
rhumerus -40.4449 7.68361 -90.6753
rradius 39.4612
rwrist 16.9655
rhand -19.7453 -30.8173
rfingers 7.12502
rthumb 6.5857 -60.6949
lclavicle 3.18055e-015 1.59028e-015
lhumerus -36.9609 -10.7447 95.5843
lradius 40.8207
lwrist 0.0267043
lhand -7.8428 -23.947
lfingers 7.12502
lthumb 18.0601 5.2345
rfemur 7.53491 -1.68733 18.173
rtibia 1.59028e-015
rfoot -17.7111 -10.3507
rtoes -4.5892
lfemur -7.17149 -4.39151 -10.2552
ltibia 23.3518
lfoot -19.9273 7.3956
ltoes -57.3783
110
root -0.846013 18.7187 5.84153 1.66935 1.48575 -3.45898
lowerback 7.28156 0.621887 -0.115907
upperback 2.74343 0.840778 1.20085
thorax -1.27123 0.414916 1.2313
lowerneck -7.41329 -1.25798 1.64156
upperneck 17.8868 -2.33447 2.10348
head 6.67548 -0.842059 0.216453
rclavicle 1.00138e-014 1.8487e-014
rhumerus -40.1524 7.87242 -90.6293
rradius 39.6523
rwrist 16.8813
rhand -19.9249 -31.1481
rfingers 7.12502
rthumb 6.41232 -61.0311
lclavicle 1.00138e-014 1.8487e-014
lhumerus -36.6017 -11.2395 95.6654
lradius 41.0354
lwrist 0.261587
lhand -7.83138 -23.9632
lfingers 7.12502
lthumb 18.0711 5.21735
rfemur 7.59471 -1.84733 18.2099
rtibia 2.70347e-014
rfoot -17.7031 -10.3304
rtoes -4.65875
lfemur -7.31674 -4.2731 -10.188
ltibia 23.5811
lfoot -19.8355 7.15877
ltoes -57.3952
111
root -0.836094 18.7179 5.82337 1.60527 1.57683 -3.56808
lowerback 7.42044 0.675605 -0.229047
upperback 3.08093 0.90319 1.28109
thorax -1.00475 0.443151 1.37319
lowerneck -7.41617 -1.26127 1.4891
upperneck 17.449 -2.34041 2.31074
head 6.5402 -0.8451 0.308422
rclavicle 6.5102e-015 3.97569e-016
rhumerus -39.5771 8.28286 -90.5325
rradius 39.706
rwrist 16.7047
rhand -20.2576 -31.425
rfingers 7.12502
rthumb 6.09109 -61.3174
lclavicle 6.5102e-015 3.97569e-016
lhumerus -36.1018 -11.5528 95.7487
lradius 41.2664
lwrist 0.568352
lhand -7.67033 -23.6485
lfingers 7.12502
lthumb 18.226 5.51759
rfemur 7.61161 -1.93169 18.2826
rtibia -3.18055e-014
rfoot -17.6851 -10.319
rtoes -4.84153
lfemur -7.47875 -4.21397 -10.0929
ltibia 23.8279
lfoot -19.7932 7.0141
ltoes -57.4053
